<?xml version="1.0" standalone="no"?>
<!DOCTYPE svg PUBLIC "-//W3C//DTD SVG 20010904//EN"
 "http://www.w3.org/TR/2001/REC-SVG-20010904/DTD/svg10.dtd">
<svg version="1.0" xmlns="http://www.w3.org/2000/svg"
 width="238.000000pt" height="238.000000pt" viewBox="0 0 238.000000 238.000000"
 preserveAspectRatio="xMidYMid meet">
<metadata>
Created by potrace 1.14, written by Peter Selinger 2001-2017
</metadata>
<g transform="translate(0.000000,238.000000) scale(0.100000,-0.100000)"
fill="#000000" stroke="none">
<path d="M0 1190 l0 -1190 1190 0 1190 0 0 1190 0 1190 -1190 0 -1190 0 0
-1190z m1866 680 c27 -14 48 -33 58 -54 33 -70 21 -99 -88 -207 -47 -47 -86
-89 -86 -92 0 -4 43 -7 95 -7 l95 0 0 -35 0 -35 -160 0 -160 0 0 28 c0 21 22
48 109 132 117 113 135 144 110 189 -27 48 -129 32 -129 -19 0 -17 -7 -20 -45
-20 -53 0 -59 17 -22 71 45 67 142 88 223 49z m-723 -493 c68 -124 56 -126
132 21 l47 92 95 0 c86 0 93 -1 84 -17 -5 -10 -50 -82 -99 -161 l-91 -143 22
-39 c12 -22 57 -96 100 -165 l77 -126 -97 3 -98 3 -20 40 c-52 101 -98 175
-106 170 -4 -3 -34 -53 -64 -110 l-57 -105 -89 0 -90 0 17 33 c9 17 28 46 40
63 13 17 24 34 24 37 0 3 18 33 40 66 22 33 40 65 40 71 0 5 4 10 10 10 5 0
12 11 16 24 5 22 -19 74 -78 164 -10 15 -21 34 -25 42 -3 8 -10 17 -13 20 -4
3 -20 28 -35 55 -16 28 -34 53 -40 58 -5 4 37 6 94 5 l104 -3 60 -108z"/>
</g>
</svg>
